<svg xmlns="http://www.w3.org/2000/svg" width="1024" height="1024" viewBox="0 0 1024 1024" fill="none">
  <!-- Cream rounded-square background -->
  <rect width="1024" height="1024" rx="225" ry="225" fill="#F2EAD3"/>
  <rect x="1.5" y="1.5" width="1021" height="1021" rx="223.5" ry="223.5" fill="none" stroke="#D6C8AB" stroke-width="3"/>

  <!-- Left page — white paper with thin blue rounded-corner border -->
  <path d="M 199 294 L 505 251 L 505 787 L 199 744 Z" fill="#FFFFFF" stroke="#007ACC" stroke-width="28"
        stroke-linecap="round" stroke-linejoin="round"/>
  <!-- Right page — white paper with thick black miter border -->
  <path d="M 518 251 L 824 294 L 824 744 L 518 787 Z" fill="#FFFFFF" stroke="#1A1A1A" stroke-width="44"
        stroke-linecap="square" stroke-linejoin="miter" stroke-miterlimit="10"/>

  <!-- Spiral staircase: 2D bars projected from a helix (N=14 per page) -->
  <g shape-rendering="crispEdges">
        <rect x="283" y="623" width="138" height="14" fill="#007ACC" opacity="0.30"/>
    <rect x="304" y="654" width="130" height="14" fill="#007ACC" opacity="0.30"/>
    <rect x="269" y="591" width="130" height="14" fill="#007ACC" opacity="0.30"/>
    <rect x="329" y="686" width="108" height="14" fill="#007ACC" opacity="0.30"/>
    <rect x="266" y="559" width="108" height="14" fill="#007ACC" opacity="0.30"/>
    <rect x="358" y="718" width="65" height="14" fill="#007ACC" opacity="0.30"/>
    <rect x="280" y="528" width="65" height="14" fill="#007ACC" opacity="0.30"/>
    <rect x="358" y="307" width="65" height="14" fill="#007ACC" opacity="1.00"/>
    <rect x="280" y="496" width="65" height="14" fill="#007ACC" opacity="1.00"/>
    <rect x="329" y="338" width="108" height="14" fill="#007ACC" opacity="1.00"/>
    <rect x="266" y="465" width="108" height="14" fill="#007ACC" opacity="1.00"/>
    <rect x="304" y="370" width="130" height="14" fill="#007ACC" opacity="1.00"/>
    <rect x="269" y="433" width="130" height="14" fill="#007ACC" opacity="1.00"/>
    <rect x="283" y="401" width="138" height="14" fill="#007ACC" opacity="1.00"/>
    <rect x="602" y="623" width="138" height="14" fill="#1A1A1A" opacity="0.30"/>
    <rect x="623" y="654" width="130" height="14" fill="#1A1A1A" opacity="0.30"/>
    <rect x="588" y="591" width="130" height="14" fill="#1A1A1A" opacity="0.30"/>
    <rect x="648" y="686" width="108" height="14" fill="#1A1A1A" opacity="0.30"/>
    <rect x="585" y="559" width="108" height="14" fill="#1A1A1A" opacity="0.30"/>
    <rect x="677" y="718" width="65" height="14" fill="#1A1A1A" opacity="0.30"/>
    <rect x="599" y="528" width="65" height="14" fill="#1A1A1A" opacity="0.30"/>
    <rect x="677" y="307" width="65" height="14" fill="#1A1A1A" opacity="1.00"/>
    <rect x="599" y="496" width="65" height="14" fill="#1A1A1A" opacity="1.00"/>
    <rect x="648" y="338" width="108" height="14" fill="#1A1A1A" opacity="1.00"/>
    <rect x="585" y="465" width="108" height="14" fill="#1A1A1A" opacity="1.00"/>
    <rect x="623" y="370" width="130" height="14" fill="#1A1A1A" opacity="1.00"/>
    <rect x="588" y="433" width="130" height="14" fill="#1A1A1A" opacity="1.00"/>
    <rect x="602" y="401" width="138" height="14" fill="#1A1A1A" opacity="1.00"/>
  </g>
</svg>
